<svg width="113" height="47" viewBox="0 0 113 47" fill="none" xmlns="http://www.w3.org/2000/svg">
<path d="M3.508 38.24C3.508 36.128 4.576 34.508 6.712 33.38C8.872 32.252 11.704 31.676 15.208 31.652V30.932C15.208 30.068 15.112 29.384 14.92 28.88C14.728 28.376 14.38 28.004 13.876 27.764C13.372 27.5 12.628 27.368 11.644 27.368C10.468 27.368 9.412 27.512 8.476 27.8C7.564 28.064 6.604 28.424 5.596 28.88L4.372 26.288C4.756 25.976 5.38 25.604 6.244 25.172C7.108 24.716 8.14 24.332 9.34 24.02C10.564 23.684 11.836 23.516 13.156 23.516C15.076 23.516 16.576 23.768 17.656 24.272C18.76 24.776 19.54 25.556 19.996 26.612C20.476 27.668 20.716 29.108 20.716 30.932V41.624H22.588V43.892C22.036 44.012 21.268 44.132 20.284 44.252C19.3 44.372 18.46 44.432 17.764 44.432C16.852 44.432 16.24 44.3 15.928 44.036C15.64 43.772 15.496 43.244 15.496 42.452V41.624C14.896 42.344 14.092 42.992 13.084 43.568C12.076 44.12 10.912 44.396 9.592 44.396C8.464 44.396 7.432 44.156 6.496 43.676C5.584 43.172 4.852 42.464 4.3 41.552C3.772 40.616 3.508 39.512 3.508 38.24ZM12.4 41.084C12.832 41.084 13.312 40.964 13.84 40.724C14.368 40.46 14.824 40.148 15.208 39.788V34.064C13.336 34.064 11.944 34.4 11.032 35.072C10.144 35.744 9.7 36.608 9.7 37.664C9.7 38.744 9.94 39.584 10.42 40.184C10.9 40.784 11.56 41.084 12.4 41.084ZM26.1633 18.008L23.6073 17.54V15.344L30.8433 14.48H30.9513L31.9953 15.236L32.0312 23.048L31.7433 26.252C32.4873 25.556 33.4713 24.944 34.6953 24.416C35.9193 23.864 37.2633 23.588 38.7273 23.588C40.2393 23.588 41.4153 23.864 42.2553 24.416C43.0953 24.968 43.6833 25.808 44.0193 26.936C44.3553 28.064 44.5233 29.564 44.5233 31.436V41.3L46.7193 41.624V44H36.7113V41.624L38.6193 41.3V31.472C38.6193 29.792 38.4393 28.628 38.0793 27.98C37.7193 27.308 36.9873 26.972 35.8833 26.972C35.2113 26.972 34.5393 27.128 33.8673 27.44C33.1953 27.728 32.6313 28.088 32.1753 28.52V41.3L34.1553 41.624V44H24.2913V41.624L26.1633 41.3V18.008ZM58.1945 44.396C54.9065 44.396 52.4705 43.472 50.8865 41.624C49.3025 39.752 48.5105 37.208 48.5105 33.992C48.5105 31.808 48.9185 29.924 49.7345 28.34C50.5505 26.756 51.6905 25.556 53.1545 24.74C54.6425 23.9 56.3825 23.48 58.3745 23.48C60.8945 23.48 62.8145 24.116 64.1345 25.388C65.4785 26.66 66.1745 28.46 66.2225 30.788C66.2225 32.324 66.1145 33.56 65.8985 34.496H54.6305C54.7505 36.536 55.2425 38.096 56.1065 39.176C56.9945 40.232 58.2305 40.76 59.8145 40.76C60.7025 40.76 61.6265 40.616 62.5865 40.328C63.5705 40.016 64.3625 39.668 64.9625 39.284L65.9705 41.48C65.3465 42.176 64.2785 42.836 62.7665 43.46C61.2785 44.084 59.7545 44.396 58.1945 44.396ZM60.4985 32.12L60.5345 30.608C60.5345 29.096 60.3305 27.944 59.9225 27.152C59.5145 26.36 58.8185 25.964 57.8345 25.964C56.8265 25.964 56.0465 26.408 55.4945 27.296C54.9425 28.16 54.6425 29.768 54.5945 32.12H60.4985ZM68.3361 38.24C68.3361 36.128 69.4041 34.508 71.5401 33.38C73.7001 32.252 76.5321 31.676 80.0361 31.652V30.932C80.0361 30.068 79.9401 29.384 79.7481 28.88C79.5561 28.376 79.2081 28.004 78.7041 27.764C78.2001 27.5 77.4561 27.368 76.4721 27.368C75.2961 27.368 74.2401 27.512 73.3041 27.8C72.3921 28.064 71.4321 28.424 70.4241 28.88L69.2001 26.288C69.5841 25.976 70.2081 25.604 71.0721 25.172C71.9361 24.716 72.9681 24.332 74.1681 24.02C75.3921 23.684 76.6641 23.516 77.9841 23.516C79.9041 23.516 81.4041 23.768 82.4841 24.272C83.5881 24.776 84.3681 25.556 84.8241 26.612C85.3041 27.668 85.5441 29.108 85.5441 30.932V41.624H87.4161V43.892C86.8641 44.012 86.0961 44.132 85.1121 44.252C84.1281 44.372 83.2881 44.432 82.5921 44.432C81.6801 44.432 81.0681 44.3 80.7561 44.036C80.4681 43.772 80.3241 43.244 80.3241 42.452V41.624C79.7241 42.344 78.9201 42.992 77.9121 43.568C76.9041 44.12 75.7401 44.396 74.4201 44.396C73.2921 44.396 72.2601 44.156 71.3241 43.676C70.4121 43.172 69.6801 42.464 69.1281 41.552C68.6001 40.616 68.3361 39.512 68.3361 38.24ZM77.2281 41.084C77.6601 41.084 78.1401 40.964 78.6681 40.724C79.1961 40.46 79.6521 40.148 80.0361 39.788V34.064C78.1641 34.064 76.7721 34.4 75.8601 35.072C74.9721 35.744 74.5281 36.608 74.5281 37.664C74.5281 38.744 74.7681 39.584 75.2481 40.184C75.7281 40.784 76.3881 41.084 77.2281 41.084ZM96.8234 44.396C94.5194 44.396 92.6474 43.568 91.2074 41.912C89.7674 40.256 89.0474 37.772 89.0474 34.46C89.0474 32.468 89.4554 30.644 90.2714 28.988C91.1114 27.308 92.3354 25.976 93.9434 24.992C95.5754 23.984 97.5434 23.48 99.8474 23.48C100.543 23.48 101.263 23.564 102.007 23.732V18.008L98.5514 17.504V15.2L106.507 14.48H106.687L107.767 15.344V41.588H109.639V43.892C107.791 44.252 106.255 44.432 105.031 44.432C104.191 44.432 103.579 44.288 103.195 44C102.835 43.736 102.655 43.208 102.655 42.416V41.516C102.079 42.356 101.251 43.052 100.171 43.604C99.0914 44.132 97.9754 44.396 96.8234 44.396ZM98.9834 41.156C99.6554 41.156 100.243 41.024 100.747 40.76C101.275 40.472 101.695 40.136 102.007 39.752V26.72C101.839 26.504 101.527 26.324 101.071 26.18C100.639 26.036 100.171 25.964 99.6674 25.964C98.3234 25.964 97.2554 26.612 96.4634 27.908C95.6714 29.18 95.2754 31.268 95.2754 34.172C95.2754 36.548 95.6114 38.312 96.2834 39.464C96.9554 40.592 97.8554 41.156 98.9834 41.156Z" fill="#0F1422"/>
<rect x="50" y="14" width="4" height="8" fill="#99CED7"/>
<rect x="40" y="15" width="4" height="7" fill="#99CED7"/>
<rect x="60" y="12" width="4" height="10" fill="#99CED7"/>
<rect x="70" y="9" width="4" height="13" fill="#99CED7"/>
<rect x="80" y="5" width="4" height="17" fill="#99CED7"/>
<rect x="90" width="4" height="22" fill="#99CED7"/>
</svg>
